<?xml version="1.0" encoding="UTF-8" standalone="no"?>
<svg
   xmlns:dc="http://purl.org/dc/elements/1.1/"
   xmlns:cc="http://creativecommons.org/ns#"
   xmlns:rdf="http://www.w3.org/1999/02/22-rdf-syntax-ns#"
   xmlns:svg="http://www.w3.org/2000/svg"
   xmlns="http://www.w3.org/2000/svg"
   viewBox="0 0 188.976 188.808"
   height="188.808"
   width="188.976"
   xml:space="preserve"
   id="svg2"
   version="1.1"><metadata
     id="metadata8"><rdf:RDF><cc:Work
         rdf:about=""><dc:format>image/svg+xml</dc:format><dc:type
           rdf:resource="http://purl.org/dc/dcmitype/StillImage" /><dc:title></dc:title></cc:Work></rdf:RDF></metadata><defs
     id="defs6"><clipPath
       id="clipPath18"
       clipPathUnits="userSpaceOnUse"><path
         id="path16"
         d="M 0,141.606 H 141.732 V 0 H 0 Z" /></clipPath></defs><g
     transform="matrix(1.3333333,0,0,-1.3333333,0,188.808)"
     id="g10"><g
       style="fill:#ffffff"
       id="g12"><g
         style="fill:#ffffff"
         clip-path="url(#clipPath18)"
         id="g14"><g
           style="fill:#ffffff"
           transform="translate(109.056)"
           id="g20"><path
             id="path22"
             style="fill:#ffffff;fill-opacity:1;fill-rule:nonzero;stroke:none"
             d="m 0,0 c -7.397,0.321 -14.372,1.662 -21.11,4.245 -12.852,4.925 -24.471,11.962 -35.093,20.642 -9.994,8.167 -19.113,17.257 -27.331,27.207 -7.978,9.658 -14.756,20.098 -19.67,31.675 -2.503,5.897 -4.313,12.002 -5.337,18.33 -0.551,3.401 -0.738,6.833 -0.169,10.238 0.448,2.676 1.616,5.063 3.573,7.017 6.661,6.652 13.316,13.308 19.968,19.968 1.17,1.171 2.495,1.992 4.179,2.22 2.378,0.322 4.262,-0.588 5.743,-2.328 0.812,-0.954 1.478,-2.058 2.067,-3.17 5.071,-9.567 10.07,-19.171 15.177,-28.718 1.849,-3.457 0.671,-7.786 -1.816,-10.27 -2.319,-2.318 -4.628,-4.646 -6.959,-6.951 -0.931,-0.921 -1.249,-1.96 -0.903,-3.237 1.12,-4.134 3.196,-7.8 5.499,-11.36 3.086,-4.771 6.734,-9.082 10.727,-13.108 3.909,-3.942 7.768,-7.943 12.144,-11.383 4.265,-3.353 8.677,-6.5 13.722,-8.599 1.349,-0.561 2.812,-0.881 4.25,-1.188 0.867,-0.185 1.638,0.235 2.263,0.87 2.616,2.655 5.224,5.319 7.853,7.961 3.274,3.29 7.903,3.896 11.901,1.54 9.309,-5.486 18.607,-10.989 27.909,-16.486 1.486,-0.878 2.743,-1.989 3.486,-3.581 1.189,-2.55 0.599,-5.431 -1.575,-7.623 C 28.172,21.564 25.82,19.241 23.475,16.912 19.086,12.553 14.707,8.183 10.295,3.846 8.153,1.741 5.537,0.563 2.56,0.205 1.645,0.095 0.722,0.056 0,0" /></g></g></g></g></svg>